<svg width="20" height="20" viewBox="0 0 20 20" fill="none" xmlns="http://www.w3.org/2000/svg">
<path d="M10 0C4.47752 0 0 3.91748 0 8.75C0 11.5119 1.46562 13.9706 3.75 15.5744V20L8.13062 17.3419C8.7369 17.4419 9.36062 17.5 10 17.5C15.5231 17.5 20 13.5825 20 8.75C20 3.91748 15.5231 0 10 0ZM5 10C4.30938 10 3.75 9.44062 3.75 8.75C3.75 8.05938 4.30938 7.5 5 7.5C5.69 7.5 6.25 8.05938 6.25 8.75C6.25 9.44062 5.69062 10 5 10ZM10 10C9.30938 10 8.75 9.44062 8.75 8.75C8.75 8.05938 9.30938 7.5 10 7.5C10.69 7.5 11.25 8.05938 11.25 8.75C11.25 9.44062 10.6906 10 10 10ZM15 10C14.3094 10 13.75 9.44062 13.75 8.75C13.75 8.05938 14.3094 7.5 15 7.5C15.6906 7.5 16.25 8.05938 16.25 8.75C16.25 9.44062 15.6906 10 15 10Z" fill="#333333" fill-opacity="0.5"/>
</svg>
