<svg width="20" height="20" viewBox="0 0 20 20" fill="none" xmlns="http://www.w3.org/2000/svg">
<path d="M19.6825 9.0406L10.4324 0.173839C10.1909 -0.0579465 9.80911 -0.0579465 9.56757 0.173839L0.30838 9.04976C0.112457 9.24568 0 9.51562 0 9.7915C0 10.3657 0.467529 10.8332 1.04172 10.8332H2.5V18.75C2.5 19.44 3.06 20 3.75 20H7.29172C7.63672 20 7.91672 19.72 7.91672 19.375V13.9583C7.91672 13.844 8.00995 13.7499 8.125 13.7499H11.875C11.9891 13.7499 12.0833 13.844 12.0833 13.9583V19.375C12.0833 19.72 12.3633 20 12.7083 20H16.25C16.94 20 17.5 19.44 17.5 18.75V10.8332H18.9583C19.5325 10.8332 20 10.3657 20 9.7915C20 9.51562 19.8875 9.24568 19.6825 9.0406Z" fill="#333333" fill-opacity="0.2"/>
</svg>
