<svg width="100" height="100" viewBox="0 0 100 100" fill="none" xmlns="http://www.w3.org/2000/svg">
<path d="M49.9988 99.9975C77.6123 99.9975 99.9975 77.6123 99.9975 49.9988C99.9975 22.3852 77.6123 0 49.9988 0C22.3852 0 0 22.3852 0 49.9988C0 77.6123 22.3852 99.9975 49.9988 99.9975Z" fill="#333333" fill-opacity="0.1"/>
<path d="M43.7955 53.9981C40.06 52.6979 36.8213 50.2683 34.5279 47.0458C32.2345 43.8233 31 39.9673 30.9954 36.012C30.9954 25.6126 39.5963 17.0117 49.9957 17.0117C60.3952 17.0117 68.996 25.6126 68.996 36.012C68.996 44.2131 63.5952 51.4126 56.1959 53.9981C62.328 55.3759 67.8082 58.8007 71.7344 63.7085C75.6605 68.6163 77.7986 74.7146 77.7967 80.9996V91.5989C69.578 97.1156 59.8942 100.042 49.9957 99.9999C39.7961 99.9999 30.1961 96.7999 22.1973 91.5989V80.9996C22.1952 74.715 24.3329 68.6169 28.2586 63.7091C32.1843 58.8014 37.6639 55.3764 43.7955 53.9981Z" fill="white"/>
</svg>
