<svg width="327" height="79" viewBox="0 0 327 79" fill="none" xmlns="http://www.w3.org/2000/svg">
<path d="M317 7C311.48 7 307 11.48 307 17C307 22.52 311.48 27 317 27C322.52 27 327 22.52 327 17C327 11.48 322.52 7 317 7ZM317 10C318.66 10 320 11.34 320 13C320 14.66 318.66 16 317 16C315.34 16 314 14.66 314 13C314 11.34 315.34 10 317 10ZM317 24.2C314.5 24.2 312.29 22.92 311 20.98C311.03 18.99 315 17.9 317 17.9C318.99 17.9 322.97 18.99 323 20.98C321.71 22.92 319.5 24.2 317 24.2Z" fill="#333333" fill-opacity="0.1"/>
<path d="M244 26L242.55 24.7052C237.4 20.1243 234 17.103 234 13.3951C234 10.3738 236.42 8 239.5 8C241.24 8 242.91 8.79455 244 10.0501C245.09 8.79455 246.76 8 248.5 8C251.58 8 254 10.3738 254 13.3951C254 17.103 250.6 20.1243 245.45 24.715L244 26Z" fill="#333333" fill-opacity="0.1"/>
<path d="M19.6825 16.0406L10.4324 7.17384C10.1909 6.94205 9.80911 6.94205 9.56757 7.17384L0.30838 16.0498C0.112457 16.2457 0 16.5156 0 16.7915C0 17.3657 0.467529 17.8332 1.04172 17.8332H2.5V25.75C2.5 26.44 3.06 27 3.75 27H7.29172C7.63672 27 7.91672 26.72 7.91672 26.375V20.9583C7.91672 20.844 8.00995 20.7499 8.125 20.7499H11.875C11.9891 20.7499 12.0833 20.844 12.0833 20.9583V26.375C12.0833 26.72 12.3633 27 12.7083 27H16.25C16.94 27 17.5 26.44 17.5 25.75V17.8332H18.9583C19.5325 17.8332 20 17.3657 20 16.7915C20 16.5156 19.8875 16.2457 19.6825 16.0406V16.0406Z" fill="#333333" fill-opacity="0.1"/>
<circle cx="163.5" cy="17.5" r="17.5" fill="url(#paint0_linear)"/>
<path d="M169.976 16.1362H157.023C156.458 16.1362 156 16.5944 156 17.1589V17.841C156 18.4056 156.458 18.8637 157.023 18.8637H169.977C170.542 18.8637 171 18.4056 171 17.841V17.1589C170.999 16.5934 170.542 16.1362 169.976 16.1362Z" fill="white"/>
<path d="M162.136 11.0227V23.9771C162.136 24.5416 162.595 24.9998 163.159 24.9998H163.841C164.406 24.9998 164.864 24.5416 164.864 23.9771V11.0227C164.864 10.4582 164.406 10 163.841 10H163.159C162.594 10 162.136 10.4572 162.136 11.0227Z" fill="white"/>
<path d="M83 7C77.4775 7 73 10.9175 73 15.75C73 18.5119 74.4656 20.9706 76.75 22.5744V27L81.1306 24.3419C81.7369 24.4419 82.3606 24.5 83 24.5C88.5231 24.5 93 20.5825 93 15.75C93 10.9175 88.5231 7 83 7ZM78 17C77.3094 17 76.75 16.4406 76.75 15.75C76.75 15.0594 77.3094 14.5 78 14.5C78.69 14.5 79.25 15.0594 79.25 15.75C79.25 16.4406 78.6906 17 78 17ZM83 17C82.3094 17 81.75 16.4406 81.75 15.75C81.75 15.0594 82.3094 14.5 83 14.5C83.69 14.5 84.25 15.0594 84.25 15.75C84.25 16.4406 83.6906 17 83 17ZM88 17C87.3094 17 86.75 16.4406 86.75 15.75C86.75 15.0594 87.3094 14.5 88 14.5C88.6906 14.5 89.25 15.0594 89.25 15.75C89.25 16.4406 88.6906 17 88 17Z" fill="#333333" fill-opacity="0.1"/>
<path d="M317 51C311.48 51 307 55.48 307 61C307 66.52 311.48 71 317 71C322.52 71 327 66.52 327 61C327 55.48 322.52 51 317 51ZM317 54C318.66 54 320 55.34 320 57C320 58.66 318.66 60 317 60C315.34 60 314 58.66 314 57C314 55.34 315.34 54 317 54ZM317 68.2C314.5 68.2 312.29 66.92 311 64.98C311.03 62.99 315 61.9 317 61.9C318.99 61.9 322.97 62.99 323 64.98C321.71 66.92 319.5 68.2 317 68.2Z" fill="#FA9D91"/>
<path d="M244 70L242.55 68.7052C237.4 64.1243 234 61.103 234 57.3951C234 54.3738 236.42 52 239.5 52C241.24 52 242.91 52.7946 244 54.0501C245.09 52.7946 246.76 52 248.5 52C251.58 52 254 54.3738 254 57.3951C254 61.103 250.6 64.1243 245.45 68.715L244 70Z" fill="#FA9D91"/>
<path d="M19.6825 60.0406L10.4324 51.1738C10.1909 50.9421 9.80911 50.9421 9.56757 51.1738L0.30838 60.0498C0.112457 60.2457 0 60.5156 0 60.7915C0 61.3657 0.467529 61.8332 1.04172 61.8332H2.5V69.75C2.5 70.44 3.06 71 3.75 71H7.29172C7.63672 71 7.91672 70.72 7.91672 70.375V64.9583C7.91672 64.844 8.00995 64.7499 8.125 64.7499H11.875C11.9891 64.7499 12.0833 64.844 12.0833 64.9583V70.375C12.0833 70.72 12.3633 71 12.7083 71H16.25C16.94 71 17.5 70.44 17.5 69.75V61.8332H18.9583C19.5325 61.8332 20 61.3657 20 60.7915C20 60.5156 19.8875 60.2457 19.6825 60.0406V60.0406Z" fill="#FA9D91"/>
<circle cx="163.5" cy="61.5" r="17.5" fill="url(#paint1_linear)"/>
<path d="M169.976 60.1362H157.023C156.458 60.1362 156 60.5944 156 61.1589V61.841C156 62.4056 156.458 62.8637 157.023 62.8637H169.977C170.542 62.8637 171 62.4056 171 61.841V61.1589C170.999 60.5934 170.542 60.1362 169.976 60.1362Z" fill="white"/>
<path d="M162.136 55.0227V67.9771C162.136 68.5416 162.595 68.9998 163.159 68.9998H163.841C164.406 68.9998 164.864 68.5416 164.864 67.9771V55.0227C164.864 54.4582 164.406 54 163.841 54H163.159C162.594 54 162.136 54.4572 162.136 55.0227Z" fill="white"/>
<path d="M83 51C77.4775 51 73 54.9175 73 59.75C73 62.5119 74.4656 64.9706 76.75 66.5744V71L81.1306 68.3419C81.7369 68.4419 82.3606 68.5 83 68.5C88.5231 68.5 93 64.5825 93 59.75C93 54.9175 88.5231 51 83 51ZM78 61C77.3094 61 76.75 60.4406 76.75 59.75C76.75 59.0594 77.3094 58.5 78 58.5C78.69 58.5 79.25 59.0594 79.25 59.75C79.25 60.4406 78.6906 61 78 61ZM83 61C82.3094 61 81.75 60.4406 81.75 59.75C81.75 59.0594 82.3094 58.5 83 58.5C83.69 58.5 84.25 59.0594 84.25 59.75C84.25 60.4406 83.6906 61 83 61ZM88 61C87.3094 61 86.75 60.4406 86.75 59.75C86.75 59.0594 87.3094 58.5 88 58.5C88.6906 58.5 89.25 59.0594 89.25 59.75C89.25 60.4406 88.6906 61 88 61Z" fill="#FA9D91"/>
<defs>
<linearGradient id="paint0_linear" x1="146.765" y1="-4.20002" x2="188.456" y2="-2.93648" gradientUnits="userSpaceOnUse">
<stop stop-color="#FA709A"/>
<stop offset="0.9999" stop-color="#FBD786"/>
<stop offset="1" stop-color="#FEE140"/>
</linearGradient>
<linearGradient id="paint1_linear" x1="146.765" y1="39.8" x2="188.456" y2="41.0635" gradientUnits="userSpaceOnUse">
<stop stop-color="#FA709A"/>
<stop offset="0.9999" stop-color="#FBD786"/>
<stop offset="1" stop-color="#FEE140"/>
</linearGradient>
</defs>
</svg>
